<?xml version="1.0" encoding="utf-8"?>
<!-- Generator: Adobe Illustrator 22.0.1, SVG Export Plug-In . SVG Version: 6.00 Build 0)  -->
<svg version="1.1" id="Capa_1" xmlns="http://www.w3.org/2000/svg" xmlns:xlink="http://www.w3.org/1999/xlink" x="0px" y="0px"
	 viewBox="0 0 73.2 60.7" style="enable-background:new 0 0 73.2 60.7;" xml:space="preserve">
<style type="text/css">
	.st0{fill:none;stroke:#FFFFFF;stroke-width:2.5;stroke-linejoin:round;stroke-miterlimit:10;}
	.st1{fill:none;stroke:#FFFFFF;stroke-width:2.5;stroke-linecap:round;stroke-linejoin:round;stroke-miterlimit:10;}
</style>
<g>
	<polyline class="st0" points="23.8,30.9 12.1,36.1 2.6,57 19.6,49.4 36.3,58.9 36.3,48.8 	"/>
	<line class="st1" x1="24" y1="38" x2="19.6" y2="49.4"/>
	<polyline class="st0" points="48.9,30.8 60.6,36.1 70.1,57 53.1,49.4 36.3,58.9 	"/>
	<line class="st1" x1="48.7" y1="38" x2="53.1" y2="49.4"/>
	<path class="st0" d="M49.4,14.9c0,7.2-13,29.1-13,29.1s-13-21.9-13-29.1s5.8-13,13-13C43.5,1.9,49.4,7.7,49.4,14.9z"/>
	<path class="st0" d="M43.1,14.9c0,3.7-3,6.7-6.7,6.7c-3.7,0-6.7-3-6.7-6.7s3-6.7,6.7-6.7C40,8.2,43.1,11.2,43.1,14.9z"/>
</g>
</svg>
