<?xml version="1.0" encoding="utf-8"?>
<!-- Generator: Adobe Illustrator 22.0.1, SVG Export Plug-In . SVG Version: 6.00 Build 0)  -->
<svg version="1.1" xmlns="http://www.w3.org/2000/svg" xmlns:xlink="http://www.w3.org/1999/xlink" x="0px" y="0px"
	 viewBox="0 0 741.3 1037" style="enable-background:new 0 0 741.3 1037;" xml:space="preserve">
<style type="text/css">
	.st0{fill:#1626AA;}
</style>
<g id="Capa_2">
</g>
<g id="Primer_plano">
</g>
<g id="MRW">
	<g>
		<polygon class="st0" points="0,337.9 736.9,19.4 736.9,0 		"/>
		<polygon class="st0" points="11.5,363.8 736.9,50.3 736.9,31.2 		"/>
		<polygon class="st0" points="23.1,389.7 736.9,81.2 736.9,62.4 		"/>
		<polygon class="st0" points="34.6,415.5 736.9,112.1 736.9,93.5 		"/>
		<polygon class="st0" points="46.1,441.4 736.9,142.9 736.9,124.7 		"/>
		<polygon class="st0" points="57.6,467.3 736.9,173.8 736.9,155.9 		"/>
		<polygon class="st0" points="69.2,493.2 736.9,204.7 736.9,187.1 		"/>
		<polygon class="st0" points="80.7,519.1 736.9,235.6 736.9,218.2 		"/>
		<polygon class="st0" points="92.2,545 736.9,266.4 736.9,249.4 		"/>
		<polygon class="st0" points="103.8,570.9 736.9,297.3 736.9,280.6 		"/>
		<polygon class="st0" points="115.3,596.8 736.9,328.2 736.9,311.8 		"/>
		<polygon class="st0" points="126.8,622.7 736.9,359 736.9,343 		"/>
		<polygon class="st0" points="138.3,648.6 736.9,389.9 736.9,374.1 		"/>
		<polygon class="st0" points="149.9,674.5 736.9,420.8 736.9,405.3 		"/>
		<polygon class="st0" points="161.4,700.4 736.9,451.7 736.9,436.5 		"/>
		<polygon class="st0" points="172.9,726.3 736.9,482.5 736.9,467.7 		"/>
		<polygon class="st0" points="184.5,752.2 736.9,513.4 736.9,498.9 		"/>
		<polygon class="st0" points="196,778 736.9,544.3 736.9,530 		"/>
		<polygon class="st0" points="207.5,803.9 736.9,575.2 736.9,561.2 		"/>
		<polygon class="st0" points="219,829.8 736.9,606 736.9,592.4 		"/>
		<polygon class="st0" points="230.6,855.7 736.9,636.9 736.9,623.6 		"/>
		<polygon class="st0" points="242.1,881.6 736.9,667.8 736.9,654.7 		"/>
		<polygon class="st0" points="253.6,907.5 736.9,698.7 736.9,685.9 		"/>
		<polygon class="st0" points="265.2,933.4 736.9,729.5 736.9,717.1 		"/>
		<polygon class="st0" points="276.7,959.3 736.9,760.4 736.9,748.3 		"/>
		<polygon class="st0" points="288.2,985.2 736.9,791.3 736.9,779.5 		"/>
		<polygon class="st0" points="299.7,1011.1 736.9,822.2 736.9,810.6 		"/>
		<polygon class="st0" points="311.3,1037 736.9,853 736.9,841.8 		"/>
	</g>
</g>
</svg>
