<?xml version="1.0" encoding="utf-8"?>
<!-- Generator: Adobe Illustrator 22.0.1, SVG Export Plug-In . SVG Version: 6.00 Build 0)  -->
<svg version="1.1" id="Capa_1" xmlns="http://www.w3.org/2000/svg" xmlns:xlink="http://www.w3.org/1999/xlink" x="0px" y="0px"
	 viewBox="0 0 357.4 73.9" style="enable-background:new 0 0 357.4 73.9;" xml:space="preserve">
<style type="text/css">
	.st0{fill:#FFFFFF;}
	.st1{fill:#FF4139;}
</style>
<path class="st0" d="M33.4,74.2H0.6L10.9,0.6h45.4l6.3,31.6l10.5-21.7c3.3-7,8.1-9.9,15.9-9.9h34.3L113,74.2H80.1l4.9-31l1.4-7.1
	l-4.9,9.8L66.3,74.2H46.2l-6.4-28.3l-1.9-9.7l-0.6,7L33.4,74.2z M171.4,58.1h-10.8l-2.3,16.1h-33.9l10.4-73.6h51.8
	c19.9,0,28.7,7.1,28.7,23.1c0,12.3-4.3,20.5-12.8,25.8l9.3,24.6h-35.6L171.4,58.1z M164,34.9h8.2c6.2,0,8.7-1.8,8.7-6.4
	c0-3.3-2.1-4.6-7.7-4.6h-7.5L164,34.9z"/>
<path class="st1" d="M258.4,74.2h-40.2l9.9-73.6h31.4l-4.2,27.3l-2,9.8l6.9-12.5l9.3-15.3c4.2-6.8,8.8-9.4,16.8-9.4h19.5L258.4,74.2
	z"/>
<path class="st1" d="M311.1,74.2h-36.6l1.5-17.8l33.4-52.5l-2.9,21.5l-2.6,13.9l6.3-11.3L320.9,10c4.2-6.8,8.8-9.4,16.8-9.4h18.9
	L311.1,74.2z"/>
</svg>
