<?xml version="1.0" encoding="utf-8"?>
<!-- Generator: Adobe Illustrator 22.0.1, SVG Export Plug-In . SVG Version: 6.00 Build 0)  -->
<svg version="1.1" id="Capa_1" xmlns="http://www.w3.org/2000/svg" xmlns:xlink="http://www.w3.org/1999/xlink" x="0px" y="0px"
	 viewBox="0 0 60.8 59.5" style="enable-background:new 0 0 60.8 59.5;" xml:space="preserve">
<style type="text/css">
	.st0{fill:none;stroke:#FFFFFF;stroke-width:2.5;stroke-linejoin:round;stroke-miterlimit:10;}
	.st1{fill:none;stroke:#FFFFFF;stroke-width:2.5;stroke-miterlimit:10;}
	.st2{fill:#394553;stroke:#FFFFFF;stroke-width:2.5;stroke-miterlimit:10;}
</style>
<g>
	<line class="st0" x1="2" y1="19.5" x2="45.5" y2="19.5"/>
	<path class="st1" d="M59.2,44.3c0,7.4-6,13.5-13.5,13.5c-7.4,0-13.5-6-13.5-13.5c0-7.4,6-13.5,13.5-13.5
		C53.2,30.8,59.2,36.9,59.2,44.3z"/>
	<g>
		<line class="st1" x1="52.1" y1="44.3" x2="39.4" y2="44.3"/>
		<line class="st1" x1="45.8" y1="50.6" x2="45.8" y2="38"/>
	</g>
	<line class="st0" x1="2" y1="36.1" x2="29.1" y2="36.1"/>
	<g>
		<g>
			<path class="st2" d="M11.8,11.3c0,0.4-0.3,0.8-0.8,0.8c-0.4,0-0.8-0.3-0.8-0.8c0-0.4,0.3-0.8,0.8-0.8
				C11.5,10.5,11.8,10.9,11.8,11.3z"/>
		</g>
	</g>
	<g>
		<g>
			<path class="st2" d="M11.8,27.8c0,0.4-0.3,0.8-0.8,0.8c-0.4,0-0.8-0.3-0.8-0.8c0-0.4,0.3-0.8,0.8-0.8
				C11.5,27,11.8,27.4,11.8,27.8z"/>
		</g>
	</g>
	<g>
		<g>
			<path class="st2" d="M11.8,44.4c0,0.4-0.3,0.8-0.8,0.8c-0.4,0-0.8-0.3-0.8-0.8c0-0.4,0.3-0.8,0.8-0.8
				C11.5,43.6,11.8,43.9,11.8,44.4z"/>
		</g>
	</g>
	<path class="st0" d="M29.4,52.8H4.8c-1.7,0-3-1.4-3-3V5.9c0-1.6,1.3-3,3-3h37.8c1.6,0,3,1.4,3,3v20.4"/>
</g>
</svg>
