<?xml version="1.0" encoding="utf-8"?>
<!-- Generator: Adobe Illustrator 22.0.1, SVG Export Plug-In . SVG Version: 6.00 Build 0)  -->
<svg version="1.1" id="Capa_1" xmlns="http://www.w3.org/2000/svg" xmlns:xlink="http://www.w3.org/1999/xlink" x="0px" y="0px"
	 viewBox="0 0 49.8 70.5" style="enable-background:new 0 0 49.8 70.5;" xml:space="preserve">
<style type="text/css">
	.st0{fill:none;stroke:#FFFFFF;stroke-width:2.5;stroke-miterlimit:10;}
	.st1{fill:none;stroke:#FFFFFF;stroke-width:2.5;stroke-linejoin:round;stroke-miterlimit:10;}
</style>
<g>
	<path class="st0" d="M27.9,34v-7.6c0-2.6-2.1-4.8-4.8-4.8H8.6c-2.6,0-4.8,2.1-4.8,4.8v17.8c0,2.6,2.1,4.8,4.8,4.8h1.5v19.7"/>
	<path class="st0" d="M22.9,8.6c0,3.9-3.1,7-7,7c-3.9,0-7-3.1-7-7c0-3.9,3.1-7,7-7C19.7,1.5,22.9,4.7,22.9,8.6z"/>
	<g>
		<g>
			<g>
				<path class="st1" d="M33,60.4l-12.6,7.2L22,53l13.5-21.5c0.7-1.2,2.7-1.3,4.3-0.3l5.3,3.3c1.6,1,2.4,2.8,1.6,4L33,60.4z"/>
				<line class="st1" x1="32.5" y1="58.8" x2="23.3" y2="53"/>
				<line class="st1" x1="24.1" y1="65.3" x2="21.1" y2="63.4"/>
			</g>
			<line class="st1" x1="28.2" y1="56" x2="35.8" y2="43.8"/>
		</g>
		<line class="st1" x1="32.9" y1="36.3" x2="43.6" y2="43"/>
	</g>
</g>
</svg>
